<svg width="24" height="45" viewBox="0 0 24 45" fill="none" xmlns="http://www.w3.org/2000/svg">
<mask id="mask0_16_7" style="mask-type:luminance" maskUnits="userSpaceOnUse" x="0" y="0" width="24" height="45">
<path d="M22 6.66686C22 4.45772 20.192 2.62654 18.026 3.06547C14.203 3.8407 10.658 5.72473 7.8579 8.52472C4.1071 12.2755 2 17.3626 2 22.6669C2 27.9712 4.1071 33.0583 7.8579 36.809C10.658 39.609 14.203 41.4931 18.026 42.2683C20.192 42.7072 22 40.876 22 38.6669V22.6669V6.66686Z" fill="#4B4438" stroke="#4B4438" stroke-width="4"/>
</mask>
<g mask="url(#mask0_16_7)">
<path d="M22 6.66686C22 4.45772 20.192 2.62654 18.026 3.06547C14.203 3.8407 10.658 5.72473 7.8579 8.52472C4.1071 12.2755 2 17.3626 2 22.6669C2 27.9712 4.1071 33.0583 7.8579 36.809C10.658 39.609 14.203 41.4931 18.026 42.2683C20.192 42.7072 22 40.876 22 38.6669V22.6669V6.66686Z" fill="#4B4438" stroke="#4B4438" stroke-width="4"/>
</g>
</svg>
