<svg width="123" height="125" viewBox="0 0 123 125" fill="none" xmlns="http://www.w3.org/2000/svg">
<g clip-path="url(#clip0_6_12)">
<path d="M17.36 30.97L14.46 35.44L17.59 37.47L15.51 40.68L6.13 34.6L11.11 26.92C13.18 23.73 15.23 22.8 17.26 24.12L17.39 24.21C19.44 25.54 19.43 27.8 17.36 30.98V30.97ZM10.34 32.77L12.35 34.08L15.21 29.66C15.85 28.67 15.85 27.96 15.2 27.54L15.16 27.51C14.5 27.08 13.84 27.36 13.2 28.36L10.34 32.78V32.77Z" fill="currentColor"/>
<path d="M26.12 20.81L28.51 23.98L25.46 26.28L18.73 17.34L26.59 11.42C29.41 9.30003 31.4 9.01003 32.56 10.55L32.67 10.69C33.38 11.64 33.27 12.74 32.35 14.02C33 13.75 33.63 13.66 34.23 13.75C34.83 13.83 35.33 14.15 35.74 14.69L36.72 15.99L37.6 17.13L34.52 19.45C34.52 19.45 34.38 19.25 34.11 18.88L33.33 17.84C32.91 17.29 32.46 17 31.97 16.98C31.48 16.96 30.86 17.23 30.12 17.79L26.13 20.79L26.12 20.81ZM23.31 17.08L24.63 18.83L29.26 15.35C29.68 15.04 29.93 14.72 30 14.41C30.08 14.1 30.02 13.81 29.82 13.54C29.63 13.27 29.37 13.14 29.05 13.13C28.73 13.13 28.36 13.28 27.95 13.59L23.32 17.07L23.31 17.08Z" fill="currentColor"/>
<path d="M45.12 2.52999L45.63 2.38999C46.65 2.10999 47.59 1.91999 48.46 1.82999C49.33 1.73999 50.08 1.70999 50.7 1.75999C51.32 1.81999 51.89 1.94999 52.4 2.13999C52.91 2.33999 53.32 2.55999 53.64 2.78999C53.96 3.03999 54.25 3.32999 54.49 3.64999C54.75 3.97999 54.93 4.27999 55.05 4.55999C55.17 4.84999 55.28 5.13999 55.36 5.44999L55.48 5.89999C55.56 6.20999 55.63 6.50999 55.66 6.80999C55.7 7.10999 55.69 7.46999 55.64 7.87999C55.6 8.29999 55.51 8.69999 55.35 9.06999C55.2 9.44999 54.96 9.85999 54.62 10.28C54.29 10.71 53.87 11.12 53.37 11.49C52.87 11.86 52.22 12.23 51.42 12.6C50.62 12.97 49.71 13.29 48.69 13.57L48.18 13.71C47.16 13.99 46.21 14.18 45.33 14.27C44.45 14.36 43.7 14.38 43.08 14.32C42.46 14.26 41.89 14.12 41.39 13.92C40.87 13.72 40.45 13.5 40.13 13.25C39.81 13 39.52 12.7 39.27 12.37C39.02 12.04 38.84 11.74 38.72 11.46C38.6 11.17 38.5 10.88 38.41 10.58L38.29 10.13C38.2 9.80999 38.14 9.50999 38.11 9.21999C38.08 8.90999 38.08 8.54999 38.11 8.15999C38.15 7.74999 38.25 7.34999 38.4 6.96999C38.56 6.58999 38.81 6.19999 39.13 5.76999C39.47 5.34999 39.89 4.94999 40.4 4.57999C40.92 4.21999 41.58 3.84999 42.37 3.48999C43.18 3.11999 44.09 2.79999 45.11 2.51999L45.12 2.52999ZM51.59 6.82999L51.54 6.62999C51.47 6.35999 51.36 6.11999 51.22 5.88999C51.07 5.66999 50.86 5.44999 50.58 5.24999C50.29 5.04999 49.96 4.90999 49.58 4.80999C49.18 4.71999 48.67 4.68999 48.06 4.72999C47.55 4.76999 46.99 4.85999 46.39 4.99999C46.23 5.03999 46.06 5.08999 45.9 5.13999C42.92 6.00999 41.68 7.35999 42.18 9.19999L42.23 9.36999C42.34 9.72999 42.5 10.04 42.7 10.3C42.93 10.58 43.24 10.83 43.63 11.04C44.04 11.27 44.59 11.38 45.3 11.38C45.97 11.38 46.73 11.28 47.58 11.05C47.69 11.02 47.82 10.98 47.95 10.95C48.74 10.71 49.4 10.44 49.93 10.13C50.55 9.76999 50.98 9.38999 51.21 8.99999C51.45 8.59999 51.6 8.22999 51.65 7.87999C51.7 7.52999 51.68 7.18999 51.58 6.83999L51.59 6.82999Z" fill="currentColor"/>
<path d="M67.52 12.01L66.95 11.95C66.06 11.86 65.2501 11.7 64.5301 11.48C63.8101 11.26 63.2101 11 62.7301 10.71C62.2501 10.42 61.8301 10.09 61.4801 9.72001C61.1401 9.33001 60.8701 8.95001 60.6801 8.59001C60.4801 8.21001 60.3401 7.83001 60.2401 7.43001C60.1301 7.02001 60.0801 6.65001 60.0701 6.32001C60.0501 5.99001 60.0701 5.66001 60.0901 5.34001L60.6601 0.0100098L64.4301 0.41001L63.8901 5.53001C63.8501 5.92001 63.8601 6.29001 63.9301 6.65001C64.0201 7.00001 64.1801 7.36001 64.4001 7.71001C64.6401 8.07001 65.03 8.37001 65.56 8.62001C66.09 8.87001 66.74 9.04001 67.52 9.12001C68.28 9.20001 68.9501 9.17001 69.5101 9.04001C70.0701 8.91001 70.5101 8.69001 70.8201 8.39001C71.1201 8.08001 71.3501 7.77001 71.5001 7.45001C71.6501 7.12001 71.7501 6.76001 71.7901 6.37001L72.3301 1.25001L76.0801 1.65001L75.5101 6.98001C75.4601 7.44001 75.3501 7.90001 75.1901 8.36001C75.0201 8.83001 74.7401 9.31001 74.3601 9.82001C73.9701 10.34 73.5001 10.78 72.9301 11.13C72.3701 11.49 71.6201 11.76 70.6801 11.94C69.7401 12.12 68.6901 12.15 67.5301 12.02L67.52 12.01Z" fill="currentColor"/>
<path d="M82.96 3.59003L90.16 7.33003C91.17 7.86003 92.05 8.39003 92.81 8.94003C93.56 9.48003 94.15 10.02 94.57 10.54C94.99 11.07 95.32 11.58 95.55 12.06C95.8 12.56 95.92 13.04 95.94 13.5C95.96 13.98 95.92 14.42 95.83 14.81C95.73 15.21 95.58 15.62 95.37 16.01L95.16 16.41C94.91 16.89 94.62 17.31 94.3 17.66C93.96 18.01 93.51 18.32 92.93 18.59C92.36 18.86 91.72 19.01 91.01 19.04C90.3 19.07 89.43 18.94 88.39 18.66C87.35 18.38 86.22 17.92 85.01 17.29L77.8 13.55L82.97 3.59003H82.96ZM85.13 7.71003L82.43 12.92L85.97 14.75C88.88 16.26 90.77 16.16 91.66 14.44L91.7 14.36C92.58 12.65 91.57 11.05 88.67 9.54003L85.13 7.71003Z" fill="currentColor"/>
<path d="M102.8 15.74L105.42 18.53L99.3 24.28L105.1 30.46L103.07 32.37L94.65 23.4L102.8 15.75V15.74Z" fill="currentColor"/>
<path d="M105.94 37.29L109.73 35.33L112.77 26.49L114.93 30.65L113.04 35.83L118.4 37.34L120.36 41.12L111.47 38.68L107.68 40.64L105.94 37.29Z" fill="currentColor"/>
<path d="M111.13 70.59L111.19 70.24C111.41 69 111.72 67.92 112.14 66.99C112.56 66.07 113.01 65.35 113.49 64.84C113.97 64.33 114.5 63.93 115.07 63.65C115.65 63.38 116.18 63.22 116.66 63.17C117.16 63.12 117.64 63.13 118.12 63.21L118.54 63.28C119.02 63.36 119.48 63.5 119.9 63.7C120.34 63.9 120.78 64.22 121.21 64.66C121.66 65.12 122.02 65.66 122.29 66.28C122.56 66.91 122.73 67.75 122.8 68.8C122.87 69.85 122.8 71.04 122.56 72.36L122.44 73.05C122.22 74.32 121.92 75.43 121.55 76.37C121.18 77.32 120.8 78.05 120.42 78.54C120.03 79.05 119.6 79.44 119.14 79.72C118.68 80 118.27 80.18 117.93 80.25C117.57 80.31 117.22 80.31 116.87 80.25H116.85L117.55 76.24C118.67 76.02 119.44 74.69 119.87 72.24C120.4 69.2 119.67 67.51 117.69 67.16L117.53 67.13C116.72 66.99 115.96 67.24 115.25 67.88C114.54 68.52 114.05 69.61 113.78 71.13C113.66 71.8 113.6 72.43 113.6 73C113.59 73.57 113.61 74.04 113.68 74.4C113.76 74.76 113.85 75.06 113.96 75.31C114.08 75.57 114.19 75.76 114.28 75.87C114.38 75.97 114.47 76.04 114.54 76.06H114.57L115.39 71.35L117.47 71.71L115.99 80.16L109.83 79.08L110.3 76.37C110.3 76.37 110.88 76.46 112.01 76.64C110.95 75.22 110.65 73.19 111.11 70.54L111.13 70.59Z" fill="currentColor"/>
<path d="M108.05 83.36L117.35 89.54L115.24 92.71L111.84 90.45L107.31 97.27L110.71 99.53L108.6 102.7L99.3 96.52L101.41 93.35L105.07 95.79L109.61 88.97L105.95 86.53L108.06 83.36H108.05Z" fill="currentColor"/>
<path d="M83.16 108.05L85.22 109.18L93.69 103.92L93.53 101.61L96.85 99.55L97.52 112.34L91.13 116.31L79.65 110.24L83.16 108.06V108.05ZM91.83 112.82L94.14 111.38L93.85 106.79L87.75 110.58L91.83 112.81V112.82Z" fill="currentColor"/>
<path d="M77.2799 122.14L73.04 122.67L64.44 116.64L65.3099 123.63L61.58 124.09L60.2 112.99L63.93 112.53L73.07 118.86L72.16 111.51L75.91 111.04L77.29 122.14H77.2799Z" fill="currentColor"/>
<path d="M40.93 108.3L41.41 110.6L50.92 113.59L52.57 111.96L56.29 113.13L47.03 121.97L39.86 119.71L36.99 107.05L40.93 108.29V108.3ZM42.96 117.98L45.56 118.8L48.85 115.59L42 113.43L42.97 117.98H42.96Z" fill="currentColor"/>
<path d="M24.4399 110.98L30.9499 101.91L34.0399 104.13L27.5299 113.2L24.4399 110.98Z" fill="currentColor"/>
<path d="M17.67 87.02L16.7 89.16L22.6 97.2L24.89 96.87L27.2001 100.02L14.5 101.68L10.05 95.62L15.22 83.71L17.66 87.04L17.67 87.02ZM13.59 96.03L15.2 98.22L19.75 97.58L15.5 91.79L13.59 96.03Z" fill="currentColor"/>
<path d="M3.16 82.2399L2.31 78.0499L7.65 69.0099L0.75 70.4199L0 66.7399L10.96 64.5099L11.71 68.1899L6.11 77.7899L13.37 76.3099L14.12 80.0099L3.16 82.2399Z" fill="currentColor"/>
<path d="M61.77 106.9C36.96 106.9 16.77 86.71 16.77 61.9C16.77 37.09 36.96 16.9 61.77 16.9C86.58 16.9 106.77 37.09 106.77 61.9C106.77 86.71 86.58 106.9 61.77 106.9ZM61.77 18.9C38.06 18.9 18.77 38.19 18.77 61.9C18.77 85.61 38.06 104.9 61.77 104.9C85.48 104.9 104.77 85.61 104.77 61.9C104.77 38.19 85.48 18.9 61.77 18.9Z" fill="currentColor"/>
<path d="M8.27002 55.9C10.203 55.9 11.77 54.333 11.77 52.4C11.77 50.467 10.203 48.9 8.27002 48.9C6.33702 48.9 4.77002 50.467 4.77002 52.4C4.77002 54.333 6.33702 55.9 8.27002 55.9Z" fill="currentColor"/>
<path d="M115.27 55.9C117.203 55.9 118.77 54.333 118.77 52.4C118.77 50.467 117.203 48.9 115.27 48.9C113.337 48.9 111.77 50.467 111.77 52.4C111.77 54.333 113.337 55.9 115.27 55.9Z" fill="currentColor"/>
</g>
<defs>
<clipPath id="clip0_6_12">
<rect width="122.82" height="124.09" fill="white"/>
</clipPath>
</defs>
</svg>
