<svg width="24" height="45" viewBox="0 0 24 45" fill="none" xmlns="http://www.w3.org/2000/svg">
<mask id="mask0_16_11" style="mask-type:luminance" maskUnits="userSpaceOnUse" x="0" y="0" width="24" height="45">
<path d="M2 6.66686C2 4.45772 3.808 2.62654 5.974 3.06547C9.797 3.8407 13.342 5.72473 16.142 8.52472C19.893 12.2755 22 17.3626 22 22.6669C22 27.9712 19.893 33.0583 16.142 36.809C13.342 39.609 9.797 41.4931 5.974 42.2683C3.808 42.7072 2 40.876 2 38.6669V22.6669V6.66686Z" fill="#F4C725" stroke="#F4C725" stroke-width="4"/>
</mask>
<g mask="url(#mask0_16_11)">
<path d="M2 6.66686C2 4.45772 3.808 2.62654 5.974 3.06547C9.797 3.8407 13.342 5.72473 16.142 8.52472C19.893 12.2755 22 17.3626 22 22.6669C22 27.9712 19.893 33.0583 16.142 36.809C13.342 39.609 9.797 41.4931 5.974 42.2683C3.808 42.7072 2 40.876 2 38.6669V22.6669V6.66686Z" fill="#F4C725" stroke="#F4C725" stroke-width="4"/>
</g>
</svg>
